# xmcd
#
# Track frame offsets:
#	182
#	12977
#	26550
#	38985
#	57017
#	71097
#	83852
#	96132
#	117282
#	130192
#
# Disc length: 1905
#
# Revision: 3
# Processed by: cddbd v1.5.1PL0 Copyright (c) Steve Scherf et al.
# Submitted via: CDValet v3.30 - Copyright (c) 1997 Greg Leichner
# Normalized: r1:DSETVAR1,TDELIM( - ),TSWAP
#
DISCID=7f076f0a
DTITLE=Various Artist - Best Of The Blues
DYEAR=1900
DGENRE=
TTITLE0=Elmore James - The Sky Is Crying
TTITLE1=Bobby "Blue" Bland - Farther Up The Road
TTITLE2=Howlin Wolf - Spoonful
TTITLE3=The James Cotton Band - Fannie Mae
TTITLE4=Slim Harpo - I'm A King Bee
TTITLE5=B.B. King - Everyday (I Have The Blues)
TTITLE6=John Lee Hooker - I'm In The Mood
TTITLE7=Buddy Guy - Hold That Plane
TTITLE8=Jimmy Reed - Big Boss Man
TTITLE9=Muddy Waters - I'm Your Hoochie Coochie Man
EXTD=
EXTT0=
EXTT1=
EXTT2=
EXTT3=
EXTT4=
EXTT5=
EXTT6=
EXTT7=
EXTT8=
EXTT9=
PLAYORDER=
